<svg width="78" height="58" viewBox="0 0 78 58" fill="none" xmlns="http://www.w3.org/2000/svg">
<path d="M8.66667 57.5C6.28334 57.5 4.24234 56.8793 2.54367 55.638C0.845007 54.3967 -0.00288153 52.9062 7.35711e-06 51.1667V6.83333C7.35711e-06 5.09167 0.849341 3.60017 2.54801 2.35883C4.24667 1.1175 6.28623 0.497889 8.66667 0.500001H69.3333C71.7167 0.500001 73.7577 1.12067 75.4563 2.362C77.155 3.60333 78.0029 5.09378 78 6.83333V51.1667C78 52.9083 77.1507 54.3998 75.452 55.6412C73.7533 56.8825 71.7138 57.5021 69.3333 57.5H8.66667ZM8.66667 51.1667H69.3333V6.83333H8.66667V51.1667ZM13 44.8333H65L48.75 29L35.75 41.6667L26 32.1667L13 44.8333Z" fill="#B3B3B3"/>
</svg>
