<svg width="64" height="64" viewBox="0 0 64 64" fill="none" xmlns="http://www.w3.org/2000/svg">
<path d="M32.5335 34.6667L30.1335 37.0667C29.6446 37.5556 29.4002 38.1778 29.4002 38.9333C29.4002 39.6889 29.6446 40.3111 30.1335 40.8C30.6224 41.2889 31.2446 41.5333 32.0002 41.5333C32.7557 41.5333 33.3779 41.2889 33.8668 40.8L40.8002 33.8667C41.3335 33.3333 41.6002 32.7111 41.6002 32C41.6002 31.2889 41.3335 30.6667 40.8002 30.1333L33.8668 23.2C33.3779 22.7111 32.7557 22.4667 32.0002 22.4667C31.2446 22.4667 30.6224 22.7111 30.1335 23.2C29.6446 23.6889 29.4002 24.3111 29.4002 25.0667C29.4002 25.8222 29.6446 26.4444 30.1335 26.9333L32.5335 29.3333H24.0002C23.2446 29.3333 22.6108 29.5893 22.0988 30.1013C21.5868 30.6133 21.3317 31.2462 21.3335 32C21.3335 32.7556 21.5895 33.3893 22.1015 33.9013C22.6135 34.4133 23.2464 34.6684 24.0002 34.6667H32.5335ZM32.0002 58.6667C28.3113 58.6667 24.8446 57.9662 21.6002 56.5653C18.3557 55.1644 15.5335 53.2649 13.1335 50.8667C10.7335 48.4667 8.83394 45.6444 7.43483 42.4C6.03572 39.1556 5.33527 35.6889 5.3335 32C5.3335 28.3111 6.03394 24.8444 7.43483 21.6C8.83572 18.3556 10.7353 15.5333 13.1335 13.1333C15.5335 10.7333 18.3557 8.83378 21.6002 7.43467C24.8446 6.03556 28.3113 5.33511 32.0002 5.33334C35.6891 5.33334 39.1557 6.03378 42.4002 7.43467C45.6446 8.83556 48.4668 10.7351 50.8668 13.1333C53.2668 15.5333 55.1673 18.3556 56.5682 21.6C57.9691 24.8444 58.6686 28.3111 58.6668 32C58.6668 35.6889 57.9664 39.1556 56.5655 42.4C55.1646 45.6444 53.2651 48.4667 50.8668 50.8667C48.4668 53.2667 45.6446 55.1671 42.4002 56.568C39.1557 57.9689 35.6891 58.6684 32.0002 58.6667ZM32.0002 53.3333C37.9557 53.3333 43.0002 51.2667 47.1335 47.1333C51.2668 43 53.3335 37.9556 53.3335 32C53.3335 26.0444 51.2668 21 47.1335 16.8667C43.0002 12.7333 37.9557 10.6667 32.0002 10.6667C26.0446 10.6667 21.0002 12.7333 16.8668 16.8667C12.7335 21 10.6668 26.0444 10.6668 32C10.6668 37.9556 12.7335 43 16.8668 47.1333C21.0002 51.2667 26.0446 53.3333 32.0002 53.3333Z" fill="white"/>
</svg>
