<svg width="66" height="72" viewBox="0 0 66 72" fill="none" xmlns="http://www.w3.org/2000/svg">
<path d="M18.6667 43.1666C17.6514 43.1666 16.7998 42.8226 16.1118 42.1346C15.4238 41.4466 15.081 40.5962 15.0833 39.5833C15.0833 38.568 15.4273 37.7164 16.1153 37.0284C16.8033 36.3404 17.6538 35.9976 18.6667 36C19.682 36 20.5336 36.344 21.2216 37.032C21.9096 37.72 22.2524 38.5704 22.25 39.5833C22.25 40.5986 21.906 41.4502 21.218 42.1382C20.53 42.8262 19.6796 43.169 18.6667 43.1666ZM33 43.1666C31.9847 43.1666 31.1331 42.8226 30.4451 42.1346C29.7571 41.4466 29.4143 40.5962 29.4167 39.5833C29.4167 38.568 29.7607 37.7164 30.4487 37.0284C31.1367 36.3404 31.9871 35.9976 33 36C34.0153 36 34.8669 36.344 35.5549 37.032C36.2429 37.72 36.5857 38.5704 36.5833 39.5833C36.5833 40.5986 36.2393 41.4502 35.5513 42.1382C34.8633 42.8262 34.0129 43.169 33 43.1666ZM47.3333 43.1666C46.3181 43.1666 45.4664 42.8226 44.7784 42.1346C44.0904 41.4466 43.7476 40.5962 43.75 39.5833C43.75 38.568 44.094 37.7164 44.782 37.0284C45.47 36.3404 46.3205 35.9976 47.3333 36C48.3486 36 49.2003 36.344 49.8883 37.032C50.5763 37.72 50.9191 38.5704 50.9167 39.5833C50.9167 40.5986 50.5727 41.4502 49.8847 42.1382C49.1967 42.8262 48.3462 43.169 47.3333 43.1666ZM7.91667 71.8333C5.94584 71.8333 4.25809 71.131 2.85342 69.7263C1.44876 68.3216 0.747617 66.6351 0.750006 64.6666V14.5C0.750006 12.5291 1.45234 10.8414 2.85701 9.43671C4.26167 8.03204 5.94823 7.3309 7.91667 7.33329H11.5V0.166626H18.6667V7.33329H47.3333V0.166626H54.5V7.33329H58.0833C60.0542 7.33329 61.7419 8.03562 63.1466 9.44029C64.5513 10.845 65.2524 12.5315 65.25 14.5V64.6666C65.25 66.6375 64.5477 68.3252 63.143 69.7299C61.7383 71.1345 60.0518 71.8357 58.0833 71.8333H7.91667ZM7.91667 64.6666H58.0833V28.8333H7.91667V64.6666ZM7.91667 21.6666H58.0833V14.5H7.91667V21.6666Z" fill="black"/>
</svg>
