<svg width="64" height="58" viewBox="0 0 64 58" fill="none" xmlns="http://www.w3.org/2000/svg">
<path d="M44.6663 57.5C42.9247 57.5 41.4332 56.8793 40.1918 55.638C38.9505 54.3967 38.3309 52.9062 38.333 51.1667V38.5C38.333 36.7583 38.9537 35.2668 40.195 34.0255C41.4363 32.7842 42.9268 32.1646 44.6663 32.1667H57.333C59.0747 32.1667 60.5662 32.7873 61.8075 34.0287C63.0488 35.27 63.6685 36.7605 63.6663 38.5V51.1667C63.6663 52.9083 63.0457 54.3998 61.8043 55.6412C60.563 56.8825 59.0726 57.5021 57.333 57.5H44.6663ZM44.6663 51.1667H57.333V38.5H44.6663V51.1667ZM0.333008 48V41.6667H28.833V48H0.333008ZM44.6663 25.8333C42.9247 25.8333 41.4332 25.2127 40.1918 23.9713C38.9505 22.73 38.3309 21.2396 38.333 19.5V6.83334C38.333 5.09167 38.9537 3.60017 40.195 2.35884C41.4363 1.1175 42.9268 0.497894 44.6663 0.500005H57.333C59.0747 0.500005 60.5662 1.12067 61.8075 2.36201C63.0488 3.60334 63.6685 5.09378 63.6663 6.83334V19.5C63.6663 21.2417 63.0457 22.7332 61.8043 23.9745C60.563 25.2158 59.0726 25.8355 57.333 25.8333H44.6663ZM44.6663 19.5H57.333V6.83334H44.6663V19.5ZM0.333008 16.3333V10H28.833V16.3333H0.333008Z" fill="black"/>
</svg>
