<svg width="73" height="73" viewBox="0 0 73 73" fill="none" xmlns="http://www.w3.org/2000/svg">
<path d="M36.5 70H36.5014C41.1594 70.0022 45.4974 69.1212 49.5458 67.3732C53.653 65.5998 57.1957 63.2089 60.2016 60.2032C60.2019 60.2029 60.2022 60.2027 60.2024 60.2024M36.5 70L73 36.5C73 41.5492 72.0413 46.2942 70.1238 50.735C68.2063 55.1758 65.6063 59.0387 62.3237 62.3237L60.2024 60.2024M36.5 70C31.8415 70 27.5031 69.1178 23.4542 67.3696C19.3466 65.596 15.8035 63.206 12.7976 60.2024M36.5 70L12.7976 60.2024M60.2024 60.2024C63.206 57.1965 65.596 53.6534 67.3696 49.5458C69.1178 45.4969 70 41.1584 70 36.5V36.4986C70.0022 31.8406 69.1212 27.5026 67.3732 23.4542C65.5998 19.347 63.2089 15.8042 60.2032 12.7984C60.2029 12.7981 60.2027 12.7978 60.2024 12.7976M60.2024 60.2024L36.5 0C41.5492 0 46.2942 0.958734 50.735 2.8762C55.1758 4.79367 59.0387 7.39368 62.3237 10.6762L60.2024 12.7976M60.2024 12.7976C57.1965 9.79404 53.6534 7.40402 49.5458 5.63042C45.4973 3.88238 41.1593 3.00018 36.5014 3L60.2024 12.7976ZM12.7976 12.7976C12.7978 12.7973 12.7981 12.797 12.7984 12.7968C15.804 9.79138 19.3463 7.40188 23.4529 5.63097C27.5022 3.88481 31.8411 3.00243 36.5 3L0 36.5C0 31.4508 0.958734 26.7058 2.8762 22.265C4.79367 17.8242 7.39368 13.9612 10.6762 10.6762L12.7976 12.7976ZM12.7976 12.7976C9.79403 15.8035 7.40402 19.3466 5.63042 23.4542C3.88238 27.5027 3.00018 31.8406 3 36.4986L12.7976 12.7976ZM12.7976 60.2024C12.7973 60.2022 12.797 60.2019 12.7968 60.2016C9.79138 57.196 7.40188 53.6537 5.63097 49.547C3.88481 45.4978 3.00243 41.1589 3 36.5L22.265 70.1238C17.8242 68.2063 13.9612 65.6063 10.6762 62.3237L12.7976 60.2024ZM31.39 38.8274L25.5726 33.0099C24.3231 31.7604 22.7311 31.1275 20.9875 31.1275C19.1665 31.1275 17.5659 31.8464 16.3112 33.1012C15.0244 34.3879 14.4287 36.029 14.4287 37.7775C14.4287 39.526 15.0244 41.1671 16.3112 42.4538L26.7137 52.8563C28.0004 54.1431 29.6415 54.7387 31.39 54.7387C33.1385 54.7387 34.7796 54.1431 36.0663 52.8563L56.7801 32.1426C58.0295 30.8931 58.6625 29.3011 58.6625 27.5575C58.6625 25.7365 57.9436 24.1359 56.6888 22.8812C55.4021 21.5944 53.761 20.9987 52.0125 20.9987C50.2639 20.9987 48.6229 21.5944 47.3362 22.8812L31.39 38.8274Z" stroke="black" stroke-width="6"/>
</svg>
