<svg width="91" height="91" viewBox="0 0 91 91" fill="none" xmlns="http://www.w3.org/2000/svg">
<path d="M40.1913 62.9417L66.9226 36.2105L61.6143 30.9021L40.1913 52.325L29.3851 41.5188L24.0768 46.8271L40.1913 62.9417ZM45.4997 83.4167C40.2545 83.4167 35.3254 82.4208 30.7122 80.4289C26.099 78.437 22.0861 75.7361 18.6736 72.3261C15.2611 68.9136 12.5602 64.9007 10.5708 60.2875C8.58148 55.6743 7.58554 50.7452 7.58301 45.5C7.58301 40.2549 8.57895 35.3257 10.5708 30.7125C12.5627 26.0993 15.2637 22.0865 18.6736 18.674C22.0861 15.2615 26.099 12.5606 30.7122 10.5712C35.3254 8.58185 40.2545 7.5859 45.4997 7.58337C50.7448 7.58337 55.674 8.57932 60.2872 10.5712C64.9004 12.5631 68.9132 15.264 72.3257 18.674C75.7382 22.0865 78.4404 26.0993 80.4323 30.7125C82.4242 35.3257 83.4189 40.2549 83.4163 45.5C83.4163 50.7452 82.4204 55.6743 80.4285 60.2875C78.4366 64.9007 75.7357 68.9136 72.3257 72.3261C68.9132 75.7386 64.9004 78.4408 60.2872 80.4327C55.674 82.4246 50.7448 83.4192 45.4997 83.4167ZM45.4997 75.8334C53.9677 75.8334 61.1403 72.8948 67.0174 67.0177C72.8945 61.1407 75.833 53.9681 75.833 45.5C75.833 37.032 72.8945 29.8594 67.0174 23.9823C61.1403 18.1052 53.9677 15.1667 45.4997 15.1667C37.0316 15.1667 29.859 18.1052 23.982 23.9823C18.1049 29.8594 15.1663 37.032 15.1663 45.5C15.1663 53.9681 18.1049 61.1407 23.982 67.0177C29.859 72.8948 37.0316 75.8334 45.4997 75.8334Z" fill="black"/>
</svg>
