<svg width="77" height="77" viewBox="0 0 77 77" fill="none" xmlns="http://www.w3.org/2000/svg">
<path d="M49.875 46.0833L38.5 38.5V19.5417M4.375 38.5C4.375 42.9814 5.25767 47.4188 6.97261 51.5591C8.68755 55.6993 11.2012 59.4612 14.37 62.63C17.5388 65.7988 21.3007 68.3125 25.4409 70.0274C29.5812 71.7423 34.0186 72.625 38.5 72.625C42.9814 72.625 47.4188 71.7423 51.5591 70.0274C55.6993 68.3125 59.4612 65.7988 62.63 62.63C65.7988 59.4612 68.3125 55.6993 70.0274 51.5591C71.7423 47.4188 72.625 42.9814 72.625 38.5C72.625 34.0186 71.7423 29.5812 70.0274 25.4409C68.3125 21.3007 65.7988 17.5388 62.63 14.37C59.4612 11.2012 55.6993 8.68755 51.5591 6.97261C47.4188 5.25767 42.9814 4.375 38.5 4.375C34.0186 4.375 29.5812 5.25767 25.4409 6.97261C21.3007 8.68755 17.5388 11.2012 14.37 14.37C11.2012 17.5388 8.68755 21.3007 6.97261 25.4409C5.25767 29.5812 4.375 34.0186 4.375 38.5Z" stroke="black" stroke-width="8" stroke-linecap="round" stroke-linejoin="round"/>
</svg>
