<svg width="25" height="23" viewBox="0 0 25 23" fill="none" xmlns="http://www.w3.org/2000/svg">
<path d="M5.42342 4.45483H21.4228C22.9322 4.45483 23.6929 5.10665 23.6929 6.43238V15.7346C23.6929 17.0492 22.9322 17.7121 21.4228 17.7121H5.42342C3.91405 17.7121 3.15332 17.0492 3.15332 15.7346V6.43238C3.15332 5.10665 3.91405 4.45483 5.42342 4.45483ZM13.4171 13.9559L21.5556 7.84649C21.8454 7.62553 22.0748 7.11734 21.7126 6.66438C21.3624 6.21142 20.7224 6.20037 20.2998 6.47657L13.4171 10.741L6.5464 6.47657C6.12377 6.20037 5.4838 6.21142 5.13362 6.66438C4.77137 7.11734 5.0008 7.62553 5.2906 7.84649L13.4171 13.9559Z" fill="white"/>
</svg>
