<svg width="116" height="116" viewBox="0 0 116 116" fill="none" xmlns="http://www.w3.org/2000/svg">
<path d="M92.8004 53.8241C92.8004 48.9521 88.8564 46.4001 83.5204 46.4001H67.9764C69.1364 42.2241 69.6004 38.2801 69.6004 34.8001C69.6004 21.3441 65.8884 18.5601 62.6404 18.5601C60.5524 18.5601 58.9284 18.7921 56.8404 19.9521C56.1444 20.4161 55.9124 20.8801 55.6804 21.5761L53.3604 34.1041C50.8084 40.6001 44.5444 46.4001 39.4404 50.3441V83.5201C41.2964 83.5201 43.1524 84.4481 45.4724 85.6081C48.0244 86.7681 50.5764 88.1601 53.3604 88.1601H75.4004C80.0404 88.1601 83.5204 84.4481 83.5204 81.2001C83.5204 80.5041 83.5204 80.0401 83.2884 79.5761C86.0724 78.4161 88.1604 76.0961 88.1604 73.0801C88.1604 71.6881 87.9284 70.5281 87.4644 69.3681C89.3204 68.2081 90.9444 66.1201 90.9444 63.8001C90.9444 62.4081 90.2484 61.0161 89.5524 59.8561C91.4084 58.4641 92.8004 56.1441 92.8004 53.8241ZM87.9284 53.8241C87.9284 56.8401 84.9124 57.0721 84.4484 58.4641C83.9844 60.0881 86.3044 60.5521 86.3044 63.3361C86.3044 66.1201 82.8244 66.1201 82.3604 67.7441C81.8964 69.6001 83.5204 70.0641 83.5204 72.8481V73.3121C83.0564 75.6321 79.5764 75.8641 78.8804 76.7921C78.1844 77.9521 78.8804 78.4161 78.8804 80.9681C78.8804 82.3601 77.2564 83.2881 75.4004 83.2881H53.3604C51.5044 83.2881 49.6484 82.3601 47.3284 81.2001C45.4724 80.2721 43.6164 79.3441 41.7604 78.8801V54.5201C47.5604 50.1121 54.9844 43.6161 57.7684 35.4961V35.0321L59.8564 23.4321C60.7844 23.2001 61.4804 23.2001 62.6404 23.2001C63.1044 23.2001 64.9604 25.9841 64.9604 34.8001C64.9604 38.2801 64.2644 41.9921 63.1044 46.4001H62.6404C61.2484 46.4001 60.3204 47.3281 60.3204 48.7201C60.3204 50.1121 61.2484 51.0401 62.6404 51.0401H83.5204C85.8404 51.0401 87.9284 52.2001 87.9284 53.8241Z" fill="black"/>
<path d="M37.1196 88.16H23.1996C20.6476 88.16 18.5596 86.072 18.5596 83.52V51.04C18.5596 48.488 20.6476 46.4 23.1996 46.4H37.1196C39.6716 46.4 41.7596 48.488 41.7596 51.04V83.52C41.7596 86.072 39.6716 88.16 37.1196 88.16ZM23.1996 51.04V83.52H37.1196V51.04H23.1996Z" fill="black"/>
</svg>
