<svg width="57" height="81" viewBox="0 0 57 81" fill="none" xmlns="http://www.w3.org/2000/svg">
<path d="M19.1869 37.6364C21.6596 40.096 25.0099 41.475 28.5 41.475C30.2284 41.475 31.9403 41.1364 33.5381 40.4781C35.1358 39.8197 36.5886 38.8544 37.8131 37.6364C39.0375 36.4183 40.0097 34.9714 40.6733 33.3779C41.3368 31.7843 41.6786 30.0758 41.6786 28.35C41.6786 24.8639 40.2863 21.5238 37.8131 19.0636C35.3404 16.604 31.9901 15.225 28.5 15.225C25.0099 15.225 21.6596 16.604 19.1869 19.0636C16.7138 21.5238 15.3214 24.8639 15.3214 28.35C15.3214 31.8361 16.7137 35.1762 19.1869 37.6364ZM28.5 76.4278C27.8887 75.7066 27.1709 74.8469 26.3714 73.867C23.7383 70.6397 20.2325 66.1243 16.7328 60.9645C13.2272 55.796 9.76504 50.0357 7.18851 44.3147C4.59413 38.5542 3 33.0554 3 28.35C3 21.6319 5.68273 15.1857 10.4632 10.4304C15.2441 5.67462 21.7319 3 28.5 3C35.2681 3 41.7559 5.67462 46.5368 10.4304C51.3173 15.1857 54 21.6319 54 28.35C54 33.0554 52.4059 38.5542 49.8115 44.3147C47.235 50.0357 43.7728 55.796 40.2672 60.9645C36.7675 66.1243 33.2617 70.6397 30.6286 73.867C29.8291 74.8469 29.1113 75.7066 28.5 76.4278Z" stroke="black" stroke-width="6"/>
</svg>
