<svg width="115" height="115" viewBox="0 0 115 115" fill="none" xmlns="http://www.w3.org/2000/svg">
<path d="M36.9509 88.2029L36.0815 87.8986L35.2225 88.2311L12.9413 96.8561L12.9282 96.8611L12.9153 96.8663C12.1011 97.192 11.5383 97.1076 10.894 96.633C10.1706 96.1003 9.875 95.5079 9.875 94.6354V27.5521C9.875 27.0332 10.0125 26.6471 10.2739 26.2994C10.5566 25.9235 10.9626 25.5971 11.5868 25.349L36.1127 17.0194L64.0491 26.7971L64.9185 27.1014L65.7775 26.7689L88.0587 18.1439L88.0717 18.1389L88.0847 18.1337C88.8989 17.808 89.4617 17.8924 90.106 18.367C90.8294 18.8997 91.125 19.4921 91.125 20.3646V87.4479C91.125 87.9668 90.9875 88.3529 90.7261 88.7006C90.4434 89.0765 90.0373 89.4029 89.4132 89.651L64.8873 97.9806L36.9509 88.2029ZM59.2575 91.2451L62.5833 92.4091V88.8854V32.8229V31.0492L60.9092 30.4633L41.7425 23.7549L38.4167 22.5909V26.1146V82.1771V83.9508L40.0908 84.5367L59.2575 91.2451ZM67.1667 88.8854V92.354L70.4572 91.2571L84.8322 86.4655L86.5417 85.8956V84.0937V27.3125V23.6768L83.1468 24.9781L68.7718 30.4886L67.1667 31.1039V32.8229V88.8854ZM14.4583 87.6875V91.3232L17.8532 90.0219L32.2282 84.5114L33.8333 83.8961V82.1771V26.1146V22.646L30.5428 23.7429L16.1678 28.5345L14.4583 29.1044V30.9062V87.6875Z" stroke="black" stroke-width="5"/>
</svg>
